<svg width="50" height="50" viewBox="0 0 50 50" fill="none" xmlns="http://www.w3.org/2000/svg">
<path d="M10.4167 12.5H18.75H31.25H39.5833V29.1667C39.5833 33.0444 39.5833 34.9831 39.0735 36.5523C38.0431 39.7235 35.5569 42.2098 32.3856 43.2402C30.8164 43.75 28.8777 43.75 25 43.75C21.1223 43.75 19.1835 43.75 17.6144 43.2402C14.4432 42.2098 11.9569 39.7235 10.9265 36.5523C10.4167 34.9831 10.4167 33.0444 10.4167 29.1667V12.5Z" fill="#212F3D" fill-opacity="0.18" stroke="#212F3D" stroke-opacity="0.18" stroke-width="3.125" stroke-linecap="round" stroke-linejoin="round"/>
<path d="M10.4167 12.5V29.1667C10.4167 33.0444 10.4167 34.9831 10.9265 36.5523C11.9569 39.7235 14.4432 42.2098 17.6144 43.2402C19.1835 43.75 21.1223 43.75 25 43.75C28.8777 43.75 30.8165 43.75 32.3856 43.2402C35.5569 42.2098 38.0431 39.7235 39.0735 36.5523C39.5833 34.9831 39.5833 33.0444 39.5833 29.1667V12.5M10.4167 12.5H6.25M10.4167 12.5H18.75M39.5833 12.5H43.75M39.5833 12.5H31.25M18.75 12.5C18.75 10.5586 18.75 9.58788 19.0672 8.82215C19.4901 7.80121 20.3012 6.99006 21.3221 6.56717C22.0879 6.25 23.0585 6.25 25 6.25C26.9415 6.25 27.9121 6.25 28.6779 6.56717C29.6987 6.99006 30.51 7.80121 30.9329 8.82215C31.25 9.58788 31.25 10.5586 31.25 12.5M18.75 12.5H31.25M19.7917 19.7917V34.375M30.2083 19.7917V34.375" stroke="#212F3D" stroke-width="3.125" stroke-linecap="round" stroke-linejoin="round"/>
</svg>
